<?xml version="1.0" encoding="utf-8"?>
<!-- Generator: Adobe Illustrator 16.0.0, SVG Export Plug-In . SVG Version: 6.00 Build 0)  -->
<!DOCTYPE svg PUBLIC "-//W3C//DTD SVG 1.1//EN" "http://www.w3.org/Graphics/SVG/1.1/DTD/svg11.dtd">
<svg version="1.1" id="Layer_1" xmlns="http://www.w3.org/2000/svg" xmlns:xlink="http://www.w3.org/1999/xlink" x="0px" y="0px"
	 width="267px" height="233px" viewBox="0 0 267 233" enable-background="new 0 0 267 233" xml:space="preserve">
<g>
	<polygon fill="#FC8754" points="232.44,157.423 228.591,158.873 232.042,159.15 	"/>
	<polygon fill="#FC8754" points="223.382,160.834 220.879,161.777 222.333,162.294 	"/>
	<path fill="#4C2709" d="M184.353,107.002c-20.272,0.359-42.628-2.855-63.446-13.602l13.114,47.447l-0.032,0.16
		c0.011,0.011,0.026,0.021,0.032,0.035c0.03,0.079,4.021,10.541,4.021,10.541l5.438,0.83l0.854,4.587l8.333-1.664l3.017,5.491
		l6.983-3.491l6.714,6.109l6.714-3.013l6.714,3.354l6.714-3.375l6.714,4.557l6.524-3.629l6.524,3.676l6.524-5.036l5.069,1.799
		l2.503-0.943l1.618-2.25l3.591,0.289l3.849-1.45L233,155h5.875l0.459-0.173l18.987-61.43
		C256.141,94.308,223.34,107.716,184.353,107.002z"/>
	<path fill="#FC8754" d="M132.498,72.661c-13.923-22.976,17.581-23.328,17.586-23.328c-4.248,0.046,2.445-8.074,2.492-10.404
		c0.078-4.038,2.604-7.998,6.029-10.966c6.935-6.01,18.064-9.441,27.912-11.468c-0.002,0-0.004,0.001-0.007,0.002
		c0.003,0,0.013-0.003,0.013-0.003c-1.612,0.921-2.944,2.406-3.882,4.123c-0.842,2.52-0.994,5.853-0.748,9.122
		c1.634,3.403,6.071,5.358,14.558,2.625c9.379-3.021,11.506-11.474,24.48-2.51c5.531,3.821,4.09,12.778,2.236,17.175
		C229.352,47.307,237.273,40.064,244,47c6.825,7.038,2.234,21.301,2.234,21.301c26.279,2.945,9.824,25.045,9.824,25.045
		c-0.037,0.019-0.074,0.036-0.11,0.055c-20.817,10.747-43.174,13.961-63.446,13.602c-38.987,0.713-71.788-12.695-73.968-13.605
		c-0.076-0.032-0.123-0.052-0.123-0.052C107.653,72.323,132.498,72.661,132.498,72.661z"/>
	<line fill="#FC8754" x1="239" y1="155" x2="233" y2="155"/>
</g>
<g>
	<polygon fill="none" points="126.44,169.423 122.591,170.873 126.042,171.15 	"/>
	<polygon fill="none" points="117.382,172.834 114.879,173.777 116.333,174.294 	"/>
	<path fill="#FC8754" d="M78.353,119.002c-20.272,0.359-42.628-2.855-63.446-13.602l13.114,47.447l-0.032,0.16
		c0.011,0.011,0.026,0.021,0.032,0.035c0.03,0.079,4.021,10.541,4.021,10.541l5.438,0.83L38.333,169l8.333-1.664l3.017,5.491
		l6.983-3.491l6.714,6.109l6.714-3.013l6.714,3.354l6.714-3.375l6.714,4.557l6.524-3.629l6.524,3.676l6.524-5.036l5.069,1.799
		l2.503-0.943l1.618-2.25l3.591,0.289l3.849-1.45L127,167h5.875l0.459-0.173l18.987-61.43
		C150.141,106.308,117.34,119.716,78.353,119.002z"/>
	<path fill="#FD5377" d="M138.357,84.661c13.923-22.976-17.581-23.328-17.586-23.328c4.248,0.046,7.555-9.074,7.508-11.404
		c-0.078-4.038-2.604-7.998-6.029-10.966c-6.935-6.01-18.064-9.441-27.912-11.468c0.002,0,0.004,0.001,0.007,0.002
		c-0.003,0-0.013-0.003-0.013-0.003c1.612,0.921,2.944,2.406,3.882,4.123c0.842,2.52,0.994,5.853,0.748,9.122
		c-1.634,3.403-6.071,5.358-14.558,2.625c-9.379-3.021-21.506-10.474-34.48-1.51c-5.531,3.821-4.09,12.778-2.236,17.175
		c-6.184,0.277-13.303,0.249-20.029,7.185c-6.825,7.038-3.037,14.087-3.037,14.087c-26.279,2.945-9.824,25.045-9.824,25.045
		c0.037,0.019,0.074,0.036,0.11,0.055c20.817,10.747,43.174,13.961,63.446,13.602c38.987,0.713,71.788-12.695,73.968-13.605
		c0.076-0.032,0.123-0.052,0.123-0.052C163.202,84.323,138.357,84.661,138.357,84.661z"/>
	<line fill="#BF1922" x1="133" y1="167" x2="127" y2="167"/>
</g>
<g>
	<polygon fill="none" points="166.44,215.423 162.591,216.873 166.042,217.15 	"/>
	<polygon fill="none" points="157.382,218.834 154.879,219.777 156.333,220.294 	"/>
	<path fill="#582063" d="M122.353,165.002c-20.272,0.359-42.628-2.855-63.446-13.602l13.114,47.447l-0.032,0.16
		c0.011,0.011,0.026,0.021,0.032,0.035c0.03,0.079,4.021,10.541,4.021,10.541l5.438,0.83L82.333,215l8.333-1.664l3.017,5.491
		l6.983-3.491l6.714,6.109l6.714-3.013l6.714,3.354l6.714-3.375l6.714,4.557l6.524-3.629l6.524,3.676l6.524-5.036l5.069,1.799
		l2.503-0.943l1.618-2.25l3.591,0.289l3.849-1.45L171,213h5.875l0.459-0.173l18.987-61.43
		C194.141,152.308,161.34,165.716,122.353,165.002z"/>
	<path fill="#FFFFFF" d="M182.357,130.661c13.923-22.976-17.581-23.328-17.586-23.328c4.248,0.046,7.555-9.074,7.508-11.404
		c-0.078-4.038-2.604-7.998-6.029-10.966c-6.935-6.01-18.064-9.441-27.912-11.468c0.002,0,0.004,0.001,0.007,0.002
		c-0.003,0-0.013-0.003-0.013-0.003c1.612,0.921,2.944,2.406,3.882,4.123c0.842,2.52,0.994,5.853,0.748,9.122
		c-1.634,3.403-6.071,5.358-14.558,2.625c-9.379-3.021-21.506-10.474-34.48-1.51c-5.531,3.821-4.09,12.778-2.236,17.175
		c-6.184,0.277-13.303,0.249-20.029,7.185c-6.825,7.038-3.037,14.087-3.037,14.087c-26.279,2.945-9.824,25.045-9.824,25.045
		c0.037,0.019,0.074,0.036,0.11,0.055c20.817,10.747,43.174,13.961,63.446,13.602c38.987,0.713,71.788-12.695,73.968-13.605
		c0.076-0.032,0.123-0.052,0.123-0.052C207.202,130.323,182.357,130.661,182.357,130.661z"/>
	<line fill="#BF1922" x1="173" y1="213" x2="167" y2="213"/>
</g>
<path fill="#BF1922" d="M157.152,75.833c-1.229-10.772-12.676-14.758-21.641-9.11c-4.445-9.623-16.232-12.497-23.123-4.123
	c-7.561,9.189,12.5,39.08,12.5,39.08l0.524,0.156C125.413,101.836,158.503,87.657,157.152,75.833z"/>
<path fill="#FFFFFF" d="M164.25,84.963c3.425,2.968,5.951,6.928,6.029,10.966c0.047,2.33-3.26,11.45-7.508,11.404
	c0.005,0,31.509,0.353,17.586,23.328c0,0,24.845-0.338,14.086,20.685c0,0-72.152,30.799-131.646,0c0,0-16.455-22.1,9.824-25.045
	c0,0-3.788-7.049,3.037-14.087c6.727-6.936,13.846-6.907,20.029-7.185c-1.854-4.396,2.701-12.263,8.848-15.479
	c12.959-6.776,23.035,5.568,33.625,8.443C140.78,94.414,157.315,78.953,164.25,84.963z"/>
</svg>
